<svg width="23" height="26" viewBox="0 0 23 26" fill="none" xmlns="http://www.w3.org/2000/svg">
<path d="M7.89502 2.58691L8.30518 3.06543C6.60758 4.21615 5.34294 5.44661 4.51123 6.75684C3.44027 8.44303 2.90479 10.2773 2.90479 12.2598C2.90479 14.6637 3.69661 16.8854 5.28027 18.9248C5.96387 18.3665 6.37402 17.8994 6.51074 17.5234C6.64746 17.1361 6.71582 16.0879 6.71582 14.3789V6.72266L14.0303 0.621582C15.7393 1.29378 17.0837 1.73242 18.0635 1.9375C19.0433 2.13118 20.194 2.22803 21.5156 2.22803H21.9087L22.1821 2.84326L19.3623 5.54346C17.4596 5.33838 15.312 4.64339 12.9194 3.4585L13.1074 22.9751L13.7568 22.9922C15.3975 22.9922 16.89 22.7131 18.2344 22.1548C19.5902 21.5965 20.9915 20.6908 22.4385 19.4375L22.9512 19.9331C21.8916 21.3914 20.8491 22.5251 19.8237 23.334C18.8097 24.1429 17.585 24.7923 16.1494 25.2822C14.7139 25.7607 13.2897 26 11.877 26C9.7806 26 7.80387 25.493 5.94678 24.479C4.10107 23.465 2.65413 22.0124 1.60596 20.1211C0.55778 18.2298 0.0336914 16.2816 0.0336914 14.2764C0.0336914 11.804 0.774251 9.514 2.25537 7.40625C3.41748 5.75423 5.29736 4.14779 7.89502 2.58691ZM12.1504 3.35596L10.1509 5.08203V12.875C10.1509 13.8434 10.0996 14.4871 9.99707 14.8062C9.88314 15.2277 9.62109 15.6777 9.21094 16.1562C8.37923 17.1247 7.21712 18.2298 5.72461 19.4717C6.63607 20.4857 7.61019 21.2661 8.64697 21.813C9.69515 22.3485 10.9199 22.7074 12.3213 22.8896L12.1504 3.35596Z" fill="#D92B2B"/>
</svg>
