<svg width="20" height="34" viewBox="0 0 20 34" fill="none" xmlns="http://www.w3.org/2000/svg">
<path fill-rule="evenodd" clip-rule="evenodd" d="M4.30834 11.9189C3.743 11.9189 3.18319 12.0384 2.66088 12.2704C2.13858 12.5025 1.664 12.8426 1.26424 13.2714C0.864485 13.7002 0.547381 14.2093 0.331034 14.7695C0.114687 15.3298 0.0033355 15.9303 0.0033355 16.5367C0.0033355 17.1431 0.114687 17.7436 0.331034 18.3038C0.547381 18.8641 0.864485 19.3731 1.26424 19.8019C1.664 20.2307 2.13858 20.5709 2.66088 20.8029C3.18319 21.035 3.743 21.1544 4.30834 21.1544H8.61334V11.9189H4.30834ZM8.61334 9.2373H4.30834C3.16636 9.2373 2.07115 8.7507 1.26365 7.88453C0.456151 7.01837 0.00250183 5.84359 0.00250183 4.61865C0.00250183 3.39371 0.456151 2.21894 1.26365 1.35277C2.07115 0.486606 3.16636 0 4.30834 0H8.61334V9.2373ZM11.1133 0V9.2373H15.4183C16.5457 9.21351 17.6193 8.71645 18.4087 7.85288C19.1981 6.9893 19.6403 5.82809 19.6403 4.61865C19.6403 3.40921 19.1981 2.248 18.4087 1.38443C17.6193 0.520853 16.5457 0.0237913 15.4183 0H11.1133ZM15.4183 11.9171C14.2883 11.917 13.2036 12.3934 12.3982 13.2436C11.5927 14.0938 11.1313 15.2496 11.1133 16.4616V16.61C11.1271 17.5199 11.3913 18.4052 11.8726 19.1547C12.354 19.9041 13.0311 20.4843 13.8188 20.8223C14.6066 21.1603 15.4699 21.2411 16.3003 21.0546C17.1307 20.868 17.8912 20.4224 18.4863 19.7737C19.0814 19.125 19.4845 18.3022 19.645 17.4085C19.8055 16.5149 19.7163 15.5903 19.3885 14.7509C19.0607 13.9114 18.509 13.1946 17.8026 12.6905C17.0963 12.1863 16.2668 11.9173 15.4183 11.9171ZM4.30834 23.8361C3.45649 23.8357 2.62367 24.1063 1.91523 24.6137C1.20678 25.1211 0.654524 25.8425 0.328307 26.6865C0.00208939 27.5306 -0.0834354 28.4595 0.0825501 29.3557C0.248536 30.252 0.658575 31.0753 1.26081 31.7215C1.86304 32.3677 2.63041 32.8079 3.46587 32.9863C4.30133 33.1647 5.16734 33.0733 5.95438 32.7237C6.74141 32.3741 7.41412 31.782 7.88742 31.0223C8.36072 30.2626 8.61334 29.3693 8.61334 28.4556V23.8361H4.30834Z" fill="#D92B2B"/>
</svg>
