<svg width="102" height="102" viewBox="0 0 102 102" fill="none" xmlns="http://www.w3.org/2000/svg">
<path d="M29.58 0H72.42C88.74 0 102 13.26 102 29.58V72.42C102 80.2651 98.8835 87.7889 93.3362 93.3362C87.7889 98.8835 80.2651 102 72.42 102H29.58C13.26 102 0 88.74 0 72.42V29.58C0 21.7349 3.11646 14.2111 8.66378 8.66378C14.2111 3.11646 21.7349 0 29.58 0ZM28.56 10.2C23.6906 10.2 19.0207 12.1344 15.5775 15.5775C12.1344 19.0207 10.2 23.6906 10.2 28.56V73.44C10.2 83.589 18.411 91.8 28.56 91.8H73.44C78.3094 91.8 82.9793 89.8657 86.4225 86.4225C89.8657 82.9793 91.8 78.3094 91.8 73.44V28.56C91.8 18.411 83.589 10.2 73.44 10.2H28.56ZM77.775 17.85C79.4658 17.85 81.0873 18.5216 82.2828 19.7172C83.4784 20.9127 84.15 22.5342 84.15 24.225C84.15 25.9158 83.4784 27.5373 82.2828 28.7328C81.0873 29.9283 79.4658 30.6 77.775 30.6C76.0842 30.6 74.4627 29.9283 73.2672 28.7328C72.0716 27.5373 71.4 25.9158 71.4 24.225C71.4 22.5342 72.0716 20.9127 73.2672 19.7172C74.4627 18.5216 76.0842 17.85 77.775 17.85ZM51 25.5C57.763 25.5 64.249 28.1866 69.0312 32.9688C73.8134 37.751 76.5 44.237 76.5 51C76.5 57.763 73.8134 64.249 69.0312 69.0312C64.249 73.8134 57.763 76.5 51 76.5C44.237 76.5 37.751 73.8134 32.9688 69.0312C28.1866 64.249 25.5 57.763 25.5 51C25.5 44.237 28.1866 37.751 32.9688 32.9688C37.751 28.1866 44.237 25.5 51 25.5ZM51 35.7C46.9422 35.7 43.0506 37.312 40.1813 40.1813C37.312 43.0506 35.7 46.9422 35.7 51C35.7 55.0578 37.312 58.9494 40.1813 61.8187C43.0506 64.688 46.9422 66.3 51 66.3C55.0578 66.3 58.9494 64.688 61.8187 61.8187C64.688 58.9494 66.3 55.0578 66.3 51C66.3 46.9422 64.688 43.0506 61.8187 40.1813C58.9494 37.312 55.0578 35.7 51 35.7Z" fill="white"/>
</svg>
