<svg width="22" height="31" viewBox="0 0 22 31" fill="none" xmlns="http://www.w3.org/2000/svg">
<path d="M11 31C7.93571 31 5.33657 29.9436 3.20257 27.8309C1.06857 25.7182 0.00104762 23.1445 0 20.1097V13.8867H22V20.1097C22 23.1434 20.933 25.7172 18.799 27.8309C16.665 29.9447 14.0653 31.001 11 31ZM0 10.7752C0 8.05259 0.890476 5.67384 2.67143 3.63891C4.45238 1.60399 6.70476 0.391013 9.42857 0V10.7752H0ZM12.5714 10.7752V0.00155601C15.2952 0.390495 17.5476 1.60295 19.3286 3.63891C21.1095 5.67488 22 8.05363 22 10.7752H12.5714Z" fill="#D92B2B"/>
</svg>
