<svg width="102" height="102" viewBox="0 0 102 102" fill="none" xmlns="http://www.w3.org/2000/svg">
<path d="M90.6667 0C93.6725 0 96.5551 1.19404 98.6805 3.31946C100.806 5.44487 102 8.32755 102 11.3333V90.6667C102 93.6725 100.806 96.5551 98.6805 98.6805C96.5551 100.806 93.6725 102 90.6667 102H11.3333C8.32755 102 5.44487 100.806 3.31946 98.6805C1.19404 96.5551 0 93.6725 0 90.6667V11.3333C0 8.32755 1.19404 5.44487 3.31946 3.31946C5.44487 1.19404 8.32755 0 11.3333 0H90.6667ZM87.8333 87.8333V57.8C87.8333 52.9006 85.887 48.2018 82.4226 44.7374C78.9582 41.273 74.2594 39.3267 69.36 39.3267C64.5433 39.3267 58.9333 42.2733 56.2133 46.6933V40.4033H40.4033V87.8333H56.2133V59.8967C56.2133 55.5333 59.7267 51.9633 64.09 51.9633C66.1941 51.9633 68.2119 52.7992 69.6997 54.287C71.1875 55.7747 72.0233 57.7926 72.0233 59.8967V87.8333H87.8333ZM21.9867 31.5067C24.5115 31.5067 26.933 30.5037 28.7183 28.7183C30.5037 26.933 31.5067 24.5115 31.5067 21.9867C31.5067 16.7167 27.2567 12.41 21.9867 12.41C19.4468 12.41 17.0109 13.419 15.2149 15.2149C13.419 17.0109 12.41 19.4468 12.41 21.9867C12.41 27.2567 16.7167 31.5067 21.9867 31.5067ZM29.8633 87.8333V40.4033H14.1667V87.8333H29.8633Z" fill="white"/>
</svg>
