<svg width="35" height="35" viewBox="0 0 35 35" fill="none" xmlns="http://www.w3.org/2000/svg">
<path d="M16.1 11.1562L22.225 0.65625C24.8792 1.35625 27.2347 2.63958 29.2915 4.50625C31.3483 6.37292 32.8428 8.58958 33.775 11.1562H16.1ZM11.2438 15.5312L5.25001 5.03125C6.82501 3.48542 8.65551 2.26042 10.7415 1.35625C12.8275 0.452084 15.0803 0 17.5 0C17.8792 0 18.3167 0.0221669 18.8125 0.0665002C19.3083 0.110834 19.7604 0.161583 20.1687 0.21875L11.2438 15.5312ZM0.568769 21.875C0.393769 21.175 0.254936 20.4604 0.152269 19.7312C0.0496028 19.0021 -0.001147 18.2583 1.9663e-05 17.5C1.9663e-05 15.4292 0.335436 13.475 1.00627 11.6375C1.6771 9.8 2.62502 8.12292 3.85001 6.60625L12.6875 21.875H0.568769ZM12.8188 34.3438C10.1646 33.6437 7.80209 32.3604 5.73126 30.4937C3.66043 28.6271 2.15835 26.4104 1.22502 23.8438H18.8562L12.8188 34.3438ZM17.5 35C17.0625 35 16.6174 34.9708 16.1648 34.9125C15.7121 34.8542 15.2822 34.7958 14.875 34.7375L23.7562 19.4688L29.75 29.9688C28.175 31.5146 26.3451 32.7396 24.2602 33.6437C22.1754 34.5479 19.922 35 17.5 35ZM31.15 28.3938L22.3125 13.125H34.4312C34.6062 13.825 34.7451 14.5396 34.8477 15.2688C34.9504 15.9979 35.0011 16.7417 35 17.5C35 19.5417 34.643 21.4958 33.929 23.3625C33.215 25.2292 32.2886 26.9062 31.15 28.3938Z" fill="#D92B2B"/>
</svg>
