<svg width="33" height="35" viewBox="0 0 33 35" fill="none" xmlns="http://www.w3.org/2000/svg">
<path d="M22.257 10.2681C23.4618 10.2673 24.6297 9.86078 25.5645 9.11663C26.4994 8.37248 27.1443 7.33607 27.3909 6.1814H31.9503C32.158 6.17996 32.3606 6.11865 32.5329 6.00513C32.7053 5.8916 32.8396 5.73089 32.9192 5.54306C32.9988 5.35523 33.0201 5.1486 32.9805 4.94897C32.9409 4.74934 32.8421 4.56556 32.6965 4.42058C32.4976 4.22832 32.2298 4.11992 31.9503 4.11858H27.3984C27.158 2.95639 26.5144 1.91139 25.5769 1.16074C24.6394 0.41009 23.4656 0 22.2545 0C21.0434 0 19.8696 0.41009 18.9321 1.16074C17.9946 1.91139 17.3511 2.95639 17.1106 4.11858H1.05216C0.781632 4.13146 0.526535 4.24574 0.339726 4.43776C0.152916 4.62978 0.0487158 4.8848 0.0487158 5.14999C0.0487158 5.41518 0.152916 5.67021 0.339726 5.86222C0.526535 6.05424 0.781632 6.16853 1.05216 6.1814H17.1206C17.3674 7.33689 18.0131 8.37392 18.9489 9.11816C19.8848 9.86241 21.0538 10.2685 22.2595 10.2681M22.2595 8.12489C21.8577 8.12489 21.4599 8.0474 21.0887 7.89686C20.7175 7.74632 20.3802 7.52566 20.0961 7.2475C19.812 6.96933 19.5867 6.6391 19.4329 6.27566C19.2792 5.91221 19.2 5.52268 19.2 5.12929C19.2 4.7359 19.2792 4.34637 19.4329 3.98293C19.5867 3.61948 19.812 3.28925 20.0961 3.01109C20.3802 2.73292 20.7175 2.51226 21.0887 2.36172C21.4599 2.21118 21.8577 2.1337 22.2595 2.1337C23.0709 2.1337 23.8491 2.4493 24.4229 3.01109C24.9966 3.57287 25.319 4.33481 25.319 5.12929C25.319 5.92377 24.9966 6.68571 24.4229 7.2475C23.8491 7.80928 23.0709 8.12489 22.2595 8.12489ZM11.3051 22.6815C12.5144 22.6821 13.6868 22.2738 14.6241 21.5256C15.5613 20.7774 16.206 19.7353 16.449 18.5754L31.9528 18.5583C32.16 18.5564 32.362 18.495 32.5338 18.3815C32.7056 18.2681 32.8396 18.1078 32.9191 17.9205C32.9986 17.7331 33.0201 17.527 32.981 17.3278C32.9418 17.1286 32.8438 16.945 32.699 16.7999C32.5001 16.6077 32.2323 16.4993 31.9528 16.4979L16.449 16.5126C16.205 15.3543 15.5604 14.3139 14.624 13.5668C13.6876 12.8198 12.5167 12.4118 11.3088 12.4118C10.101 12.4118 8.93005 12.8198 7.99365 13.5668C7.05725 14.3139 6.41268 15.3543 6.16868 16.5126L1.05216 16.4979C0.773108 16.4979 0.505488 16.6065 0.30817 16.7997C0.110852 16.9929 0 17.2549 0 17.5281C0 17.8014 0.110852 18.0634 0.30817 18.2566C0.505488 18.4498 0.773108 18.5583 1.05216 18.5583L6.16868 18.5754C6.41151 19.7344 7.05542 20.776 7.99167 21.5241C8.92792 22.2722 10.0967 22.681 11.3051 22.6815ZM11.3076 20.5383C10.4962 20.5383 9.71798 20.2227 9.14422 19.6609C8.57046 19.0992 8.24812 18.3372 8.24812 17.5427C8.24812 16.7483 8.57046 15.9863 9.14422 15.4245C9.71798 14.8628 10.4962 14.5471 11.3076 14.5471C12.119 14.5471 12.8972 14.8628 13.471 15.4245C14.0447 15.9863 14.3671 16.7483 14.3671 17.5427C14.3671 18.3372 14.0447 19.0992 13.471 19.6609C12.8972 20.2227 12.119 20.5383 11.3076 20.5383ZM22.247 35C23.4591 34.9997 24.6337 34.5886 25.5714 33.8365C26.5091 33.0845 27.152 32.0378 27.3909 30.8744L31.9503 30.9377C32.158 30.9362 32.3606 30.8749 32.5329 30.7614C32.7053 30.6479 32.8396 30.4872 32.9192 30.2993C32.9988 30.1115 33.0201 29.9049 32.9805 29.7052C32.9409 29.5056 32.8421 29.3218 32.6965 29.1769C32.4976 28.9846 32.2298 28.8762 31.9503 28.8749L27.3835 28.8091C27.136 27.6547 26.4904 26.6188 25.5551 25.8753C24.6198 25.1318 23.4518 24.726 22.247 24.726C21.0423 24.726 19.8743 25.1318 18.939 25.8753C18.0037 26.6188 17.3581 27.6547 17.1106 28.8091L1.04967 28.8749C0.779145 28.8877 0.524048 29.002 0.337238 29.194C0.150429 29.3861 0.0462283 29.6411 0.0462283 29.9063C0.0462283 30.1715 0.150429 30.4265 0.337238 30.6185C0.524048 30.8105 0.779145 30.9248 1.04967 30.9377L17.1032 30.8744C17.3421 32.0378 17.985 33.0845 18.9227 33.8365C19.8604 34.5886 21.035 34.9997 22.247 35ZM22.247 32.8568C21.4356 32.8568 20.6574 32.5412 20.0837 31.9794C19.5099 31.4176 19.1876 30.6557 19.1876 29.8612C19.1876 29.0667 19.5099 28.3048 20.0837 27.743C20.6574 27.1812 21.4356 26.8656 22.247 26.8656C23.0585 26.8656 23.8367 27.1812 24.4104 27.743C24.9842 28.3048 25.3065 29.0667 25.3065 29.8612C25.3065 30.6557 24.9842 31.4176 24.4104 31.9794C23.8367 32.5412 23.0585 32.8568 22.247 32.8568Z" fill="#D92B2B"/>
</svg>
