<svg width="32" height="32" viewBox="0 0 32 32" fill="none" xmlns="http://www.w3.org/2000/svg">
<g clip-path="url(#clip0_76_68)">
<path d="M22.2 27.2533H21.3333V24.0933C21.3333 23.0077 20.9021 21.9666 20.1344 21.1989C19.3668 20.4313 18.3256 20 17.24 20C16.1544 20 15.1132 20.4313 14.3456 21.1989C13.5779 21.9666 13.1467 23.0077 13.1467 24.0933V27.2533H12.2933C11.7629 27.2533 11.2542 27.464 10.8791 27.8391C10.504 28.2142 10.2933 28.7229 10.2933 29.2533V31.3333C10.2933 31.5101 10.3636 31.6797 10.4886 31.8047C10.6136 31.9298 10.7832 32 10.96 32H23.5333C23.7101 32 23.8797 31.9298 24.0047 31.8047C24.1298 31.6797 24.2 31.5101 24.2 31.3333V29.2533C24.2 28.7229 23.9893 28.2142 23.6142 27.8391C23.2391 27.464 22.7304 27.2533 22.2 27.2533ZM17.3333 25.4667C16.9953 25.4199 16.6855 25.2524 16.4614 24.995C16.2372 24.7377 16.1137 24.408 16.1137 24.0667C16.1137 23.7254 16.2372 23.3956 16.4614 23.1383C16.6855 22.881 16.9953 22.7134 17.3333 22.6667C17.5296 22.6475 17.7276 22.6697 17.9148 22.7317C18.102 22.7937 18.2741 22.8941 18.4201 23.0266C18.5661 23.1591 18.6828 23.3206 18.7627 23.5009C18.8425 23.6812 18.8838 23.8762 18.8838 24.0733C18.8838 24.2705 18.8425 24.4655 18.7627 24.6457C18.6828 24.826 18.5661 24.9876 18.4201 25.1201C18.2741 25.2525 18.102 25.353 17.9148 25.415C17.7276 25.477 17.5296 25.4991 17.3333 25.48V25.4667Z" fill="#D92B2B"/>
<path d="M31.8933 11.7467C31.5406 10.5591 30.8144 9.51681 29.8224 8.77463C28.8304 8.03245 27.6256 7.62988 26.3867 7.62667C25.5636 7.61809 24.7487 7.79108 24 8.13333L20.9867 5.04C21.1878 4.29047 21.1666 3.49862 20.9256 2.76095C20.6845 2.02329 20.2341 1.37166 19.6292 0.885488C19.0244 0.399319 18.2911 0.0996037 17.5189 0.022871C16.7466 -0.0538617 15.9687 0.0957018 15.28 0.453333C14.8085 0.708797 14.3933 1.05645 14.0588 1.47561C13.7244 1.89478 13.4777 2.37691 13.3333 2.89333L4.96 9.33333C4.07452 9.21568 3.17445 9.37891 2.38667 9.8C1.48528 10.2716 0.775835 11.0419 0.379763 11.9789C-0.0163098 12.916 -0.0743831 13.9615 0.215482 14.9367C0.505348 15.9118 1.12513 16.7559 1.96874 17.3245C2.81236 17.893 3.82735 18.1507 4.84 18.0533L11.1867 24.5733V24C11.1843 23.1168 11.3753 22.2438 11.7461 21.4423C12.117 20.6407 12.6587 19.93 13.3333 19.36L8.69334 14.6667C8.86001 13.9879 8.86001 13.2788 8.69334 12.6L15.1867 7.46667C15.6538 7.73226 16.1696 7.90102 16.7034 7.96287C17.2371 8.02472 17.7779 7.9784 18.2933 7.82667L21.28 10.84C20.8838 11.6256 20.6782 12.4935 20.68 13.3733C20.6792 14.6427 21.0987 15.8765 21.8729 16.8824C22.6472 17.8882 23.7327 18.6094 24.96 18.9333C25.1016 18.9524 25.2451 18.9524 25.3867 18.9333C25.7918 18.9321 26.1826 18.7835 26.486 18.5151C26.7894 18.2467 26.9847 17.877 27.0354 17.4751C27.086 17.0731 26.9886 16.6665 26.7612 16.3313C26.5338 15.996 26.1921 15.755 25.8 15.6533C25.3926 15.5454 25.0205 15.3327 24.7209 15.0363C24.4212 14.74 24.2044 14.3703 24.092 13.9641C23.9796 13.5579 23.9755 13.1293 24.0802 12.7211C24.1849 12.3128 24.3947 11.9391 24.6886 11.6371C24.9826 11.3351 25.3506 11.1153 25.7559 10.9997C26.1612 10.8841 26.5897 10.8766 26.9987 10.9781C27.4078 11.0795 27.7832 11.2863 28.0875 11.5779C28.3919 11.8694 28.6145 12.2356 28.7333 12.64C28.7787 12.8667 28.8706 13.0815 29.0034 13.2707C29.1362 13.4599 29.3069 13.6195 29.5046 13.7392C29.7024 13.8589 29.9229 13.9361 30.1521 13.966C30.3814 13.9959 30.6143 13.9778 30.8362 13.9128C31.058 13.8479 31.2639 13.7374 31.4408 13.5886C31.6177 13.4398 31.7616 13.2558 31.8636 13.0483C31.9655 12.8408 32.0232 12.6144 32.0329 12.3834C32.0426 12.1524 32.0042 11.922 31.92 11.7067L31.8933 11.7467ZM4.41333 15.08C4.13702 15.0774 3.86767 14.993 3.6392 14.8376C3.41073 14.6822 3.23337 14.4626 3.12945 14.2066C3.02553 13.9505 2.9997 13.6695 3.05521 13.3988C3.11073 13.1281 3.24511 12.8799 3.44142 12.6854C3.63774 12.491 3.88721 12.359 4.15841 12.306C4.42961 12.2531 4.71042 12.2816 4.96546 12.3879C5.2205 12.4942 5.43837 12.6737 5.59162 12.9036C5.74487 13.1335 5.82666 13.4037 5.82667 13.68C5.83641 13.8676 5.80642 14.0551 5.73866 14.2302C5.6709 14.4054 5.5669 14.5643 5.43346 14.6964C5.30003 14.8286 5.14018 14.9311 4.96438 14.9972C4.78858 15.0633 4.6008 15.0915 4.41333 15.08ZM17.1333 5.45333C16.8459 5.44025 16.5687 5.3429 16.3361 5.1734C16.1036 5.00391 15.9261 4.76977 15.8256 4.50013C15.7252 4.23048 15.7063 3.93725 15.7713 3.65695C15.8363 3.37664 15.9823 3.12164 16.1911 2.9237C16.3999 2.72576 16.6624 2.59361 16.9458 2.54373C17.2292 2.49384 17.521 2.52842 17.7848 2.64314C18.0487 2.75787 18.273 2.94768 18.4298 3.18895C18.5866 3.43021 18.669 3.71227 18.6667 4C18.667 4.19778 18.6269 4.39353 18.5489 4.57529C18.4709 4.75704 18.3567 4.92096 18.2131 5.05701C18.0696 5.19307 17.8998 5.29839 17.7141 5.36654C17.5284 5.43469 17.3308 5.46422 17.1333 5.45333Z" fill="#D92B2B"/>
</g>
<defs>
<clipPath id="clip0_76_68">
<rect width="32" height="32" fill="white"/>
</clipPath>
</defs>
</svg>
