<svg width="32" height="35" viewBox="0 0 32 35" fill="none" xmlns="http://www.w3.org/2000/svg">
<path d="M16 0C18.1217 0 20.1566 0.904087 21.6569 2.51337C23.1571 4.12266 24 6.30532 24 8.5812C24 10.8571 23.1571 13.0397 21.6569 14.649C20.1566 16.2583 18.1217 17.1624 16 17.1624C13.8783 17.1624 11.8434 16.2583 10.3431 14.649C8.84285 13.0397 8 10.8571 8 8.5812C8 6.30532 8.84285 4.12266 10.3431 2.51337C11.8434 0.904087 13.8783 0 16 0ZM16 21.453C24.84 21.453 32 25.2931 32 30.0342V34.3248H0V30.0342C0 25.2931 7.16 21.453 16 21.453Z" fill="#D92B2B"/>
</svg>
